<svg width="34" height="48" viewBox="0 0 34 48" fill="none" xmlns="http://www.w3.org/2000/svg">
<path d="M23.1959 26.3053C24.5361 26.3311 25.7732 26.8465 26.6753 27.8517C27.5 28.7538 27.8608 29.9651 29.3041 29.9393C30.7732 29.8878 33.2216 28.496 33.3247 26.8723C33.4794 24.1403 33.3247 21.3311 33.3247 18.5991C33.3247 17.4909 33.3247 16.3568 33.3247 15.2486C33.3247 14.7847 32.9381 14.3981 32.4742 14.3981C29.2783 14.3981 26.0825 14.3981 22.8866 14.3981C22.4227 14.3981 21.8557 14.5012 21.3918 14.3981C21.3144 14.3723 21.2113 14.295 21.0052 14.0888C20.6186 13.6764 20.3093 13.161 20.0773 12.6713C19.9227 12.3105 19.8711 12.1816 20.1546 11.8981C20.6959 11.3311 21.3402 10.9702 21.8299 10.3259C22.7062 9.14035 23.1959 7.61973 23.0928 6.15066C22.9124 3.28983 20.7732 0.738285 17.9639 0.145502C15.0258 -0.498828 12.0103 1.04756 10.7732 3.77952C9.48454 6.5888 10.3866 9.88777 12.8608 11.7177C13.0155 11.8208 13.1701 11.9754 13.3505 12.0527C13.299 12.2331 13.3247 12.5424 13.299 12.6197C13.1443 13.1352 12.7835 13.6507 12.4485 14.0373C12.0361 14.5012 11.9588 14.4496 11.366 14.4496C7.86082 14.4496 4.35567 14.4496 0.850515 14.4496C0.386598 14.4496 0 14.8362 0 15.3001C0 23.2383 0 31.2022 0 39.1403C0 41.0733 0.206186 42.929 1.34021 44.5527C2.8866 46.7177 5.2835 47.7744 7.8866 47.7744C12.0361 47.7744 16.1856 47.7744 20.3351 47.7744C24.3814 47.7744 28.4278 47.7744 32.4742 47.7744C32.9381 47.7744 33.3247 47.3878 33.3247 46.9239C33.3247 43.2125 33.3247 39.5012 33.3247 35.7898C33.3247 35.0166 33.1959 34.4239 32.5773 33.8568C31.7268 33.0579 30.232 32.13 29.0206 32.2589C28.0412 32.362 27.6031 33.0063 27.1134 33.7537C26.5722 34.5527 25.799 35.2228 24.8969 35.5836C23.2732 36.228 21.366 35.8929 20.0515 34.7589C16.7268 31.8208 18.9175 26.3826 23.1959 26.3053ZM16.7268 31.8208C17.1392 35.5063 20.7732 38.1094 24.433 37.4393C25.2835 37.2847 26.134 36.9239 26.8557 36.4084C27.2423 36.1507 27.6031 35.8414 27.9124 35.4806C28.2732 35.094 28.5052 34.5269 28.866 34.1403C29.3299 33.6507 29.9227 34.063 30.4897 34.3723C30.8247 34.5527 31.1598 34.7331 31.4175 35.0166C31.4948 35.094 31.701 35.3775 31.6495 35.2486C31.7784 35.7641 31.6495 36.5373 31.6495 37.0785C31.6495 38.3156 31.6495 39.5527 31.6495 40.7898C31.6495 42.5424 31.6495 44.2692 31.6495 46.0218C24.0979 46.0218 16.5206 46.0218 8.96907 46.0218C7.39691 46.0218 5.90206 46.0218 4.48454 45.1455C2.47423 43.9084 1.7268 41.8208 1.7268 39.5527C1.7268 35.3259 1.7268 31.0991 1.7268 26.8723C1.7268 23.2898 1.7268 19.6816 1.7268 16.0991C4.63918 16.0991 7.55155 16.0991 10.4639 16.0991C10.9536 16.0991 11.4433 16.1249 11.933 16.0991C12.8866 16.0476 13.5309 15.429 14.0722 14.7074C14.7165 13.8311 15.232 12.7486 15.1031 11.6403C15.0258 10.9187 14.4588 10.7125 13.9433 10.3517C13.3247 9.91354 12.7835 9.32076 12.4227 8.65066C10.9278 5.84138 12.7577 2.2589 15.8505 1.74344C18.8918 1.22798 21.7268 3.95993 21.3918 7.00117C21.2371 8.52179 20.3351 9.73313 19.0979 10.5579C18.067 11.228 18.067 12.362 18.5567 13.4187C18.9948 14.3465 19.6649 15.4548 20.6186 15.9445C21.0567 16.1764 21.4948 16.1249 21.9588 16.1249C25.1804 16.1249 28.4021 16.1249 31.6237 16.1249C31.6237 18.2641 31.6237 20.3775 31.6237 22.5166C31.6237 23.8053 31.6237 25.094 31.6237 26.4084C31.6237 26.5373 31.6495 26.6661 31.6237 26.795C31.6237 26.8465 31.6237 26.8723 31.6237 26.8723C31.6237 26.8723 31.5979 26.8981 31.5722 26.9239C31.1598 27.4909 30.0773 28.1352 29.3814 28.2125C28.9175 28.2641 28.6856 27.6455 28.4021 27.2847C28.0155 26.7434 27.5515 26.2795 27.0103 25.8929C25.9021 25.0682 24.5619 24.6558 23.1701 24.63C19.433 24.6816 16.2887 28.0063 16.7268 31.8208ZM13.4021 12.0012C13.634 12.13 13.4794 12.1043 13.4021 12.0012V12.0012Z" fill="#ED1954"/>
</svg>
